<?xml version="1.0" encoding="UTF-8" standalone="no"?>
<svg
   version="1.0"
   width="1024"
   height="1024"
   viewBox="0 0 1024 1024"
   preserveAspectRatio="xMidYMid"
   id="svg301"
   xmlns="http://www.w3.org/2000/svg"
   xmlns:svg="http://www.w3.org/2000/svg">
  <defs
     id="defs301" />
  <g
     fill="#862d00"
     id="g74"
     transform="translate(0,-0.17677669)"
     style="display:inline">
    <g
       id="path314"
       style="opacity:1"
       transform="matrix(2.9584851,0,0,2.9584851,-997.66142,-594.36805)">
      <path
         style="baseline-shift:baseline;display:inline;overflow:visible;vector-effect:none;enable-background:accumulate;stop-color:#000000;stop-opacity:1"
         d="m 512.23253,261.73222 c -2.81555,0 -5.58324,0.0629 -8.26222,0.17803 -0.789,0.0438 -1.55229,0.10069 -2.25499,0.17346 -8.59811,0.53616 -17.09437,2.32575 -25.48504,4.27263 -3.24352,0.75259 -6.41285,1.64431 -9.5723,2.85525 -1.47229,0.49494 -2.93067,1.01283 -4.37533,1.55203 -2.04594,0.57757 -5.31576,1.89084 -6.9293,2.80275 -22.42915,9.78988 -41.25992,25.22447 -56.12142,46.01048 -3.5835,4.95497 -4.24965,6.31465 -6.19438,9.58371 -0.59198,0.99512 -1.42695,2.29106 -1.66385,3.04927 -5.91017,10.82121 -9.64057,21.06233 -12.94337,32.12447 -0.4678,2.06768 -0.838,4.15871 -1.26215,6.23774 -0.36932,1.85266 -0.87617,4.26475 -1.075,5.56445 -0.19884,1.29969 -0.55554,2.65004 0,2.78902 v 0.0161 c 170.78442,0.24773 100.11068,0.13426 268.26573,0.35503 0.72575,-1.16119 -0.36197,-4.32628 -0.66593,-6.47439 -0.35451,-2.50539 -0.72556,-5.01785 -1.34888,-7.47022 -2.23033,-8.77517 -5.61527,-19.15241 -8.5224,-25.79089 -0.70197,-1.7252 -1.54922,-3.23019 -2.35954,-4.82749 -2.31715,-4.63012 -3.52152,-6.82416 -6.34546,-11.2998 -1.17008,-1.85443 -2.4141,-3.66118 -3.62214,-5.49112 -4.43048,-6.77304 -11.74521,-14.11337 -18.31836,-20.49804 -1.80053,-1.74889 -3.73623,-3.36535 -5.75846,-4.85234 -8.52304,-6.26721 -17.43244,-12.07134 -26.75632,-17.06991 -5.51766,-2.95805 -11.21741,-5.49171 -17.17718,-7.59576 -12.62065,-4.4406 -24.30734,-6.19438 -41.25171,-6.19438 z m -21.74881,12.29062 c 0.3618,0.0125 0.079,0.33049 -1.03847,1.03163 -0.93486,0.58429 -8.02117,5.00216 -12.11119,7.45617 -19.98269,11.9195 -37.30261,30.58565 -47.70294,46.59517 -5.46035,10.60353 -12.65034,22.81112 -15.68564,35.23456 -3.44092,-0.0117 -3.23961,0.13265 -8.14764,0.13265 -2.30542,0 -7.44057,0.0408 -8.28879,-0.39537 -0.68306,-3.69171 3.69423,-11.76449 8.38286,-21.71354 12.27007,-25.82557 28.71204,-43.54153 58.27706,-58.61619 10.44417,-5.31704 24.74702,-9.77924 26.31475,-9.72508 z"
         id="path18" />
      <path
         style="baseline-shift:baseline;display:inline;overflow:visible;fill:#000000;stroke:#ffffff;stroke-width:0.3;stroke-dasharray:none;stroke-opacity:1;enable-background:accumulate;stop-color:#000000;stop-opacity:1"
         d="m 512.23242,259.97852 c -2.84165,0 -5.63453,0.0635 -8.33789,0.17968 l -0.01,0.002 h -0.0117 c -0.78602,0.0436 -1.54796,0.10065 -2.26758,0.17382 -0.003,2.1e-4 -0.006,0.002 -0.01,0.002 -8.76488,0.54753 -17.35083,2.36093 -25.76172,4.3125 -3.291,0.76361 -6.53688,1.67632 -9.78906,2.92187 -0.005,0.002 -0.009,0.002 -0.0137,0.004 -1.4676,0.49421 -2.92157,1.0095 -4.36133,1.54687 l 0.13672,-0.0449 c -2.24459,0.63365 -5.44735,1.90853 -7.31641,2.96485 l 0.16211,-0.082 c -22.71855,9.9162 -41.81553,25.57574 -56.8457,46.59766 -3.60441,4.98466 -4.35155,6.47308 -6.27539,9.70703 -0.56358,0.94739 -1.41309,2.08923 -1.83008,3.42383 l 0.13477,-0.31836 c -5.98445,10.9572 -9.76447,21.33823 -13.08594,32.46289 l -0.0156,0.0586 -0.0137,0.0566 c -0.48,2.12163 -0.85146,4.22422 -1.26953,6.27343 l -0.002,0.004 v 0.004 c -0.36624,1.83718 -0.87075,4.22316 -1.08789,5.64257 -0.0894,0.58467 -0.23655,1.2452 -0.29688,1.94532 -0.0302,0.35005 -0.0621,0.70819 0.0664,1.22265 0.0265,0.10623 0.14579,0.24775 0.20898,0.375 v 1.27735 l 1.75,0.004 c 170.7845,0.24773 100.11268,0.13275 268.26758,0.35352 l 0.97266,0.002 0.51562,-0.82422 c 0.95084,-1.52133 0.52808,-2.80824 0.29102,-4.11133 -0.23706,-1.30308 -0.58091,-2.63395 -0.70899,-3.53906 -0.3555,-2.51242 -0.73194,-5.08782 -1.38476,-7.65625 -2.25065,-8.85509 -5.63029,-19.23736 -8.60352,-26.0332 -0.75086,-1.84213 -1.62497,-3.3903 -2.41015,-4.9375 v -0.002 c -2.32618,-4.64811 -3.58818,-6.94574 -6.42969,-11.44922 -1.19383,-1.89207 -2.44435,-3.70664 -3.63867,-5.51563 -4.59672,-7.02717 -11.97391,-14.39525 -18.5625,-20.79492 -1.86371,-1.81025 -3.86083,-3.47792 -5.94141,-5.00781 -8.57661,-6.3066 -17.55473,-12.15533 -26.9668,-17.20117 -5.59334,-2.99863 -11.37638,-5.57077 -17.42187,-7.70508 h -0.002 c -12.33357,-4.33959 -23.99498,-6.11635 -40.08008,-6.24414 v -0.0508 z m 0,3.50585 c 16.82261,0 28.23131,1.72007 40.66797,6.09571 5.87405,2.07379 11.49162,4.56885 16.93359,7.48633 9.2357,4.95129 18.07545,10.70968 26.54493,16.9375 1.96388,1.44408 3.83881,3.00973 5.57617,4.69726 6.55771,6.36967 13.80802,13.68226 18.07226,20.20117 l 0.002,0.004 0.002,0.002 c 1.22061,1.84898 2.45845,3.64616 3.60352,5.46094 2.806,4.44722 3.95222,6.53752 6.25976,11.14844 l 0.002,0.004 0.002,0.006 c 0.83237,1.64077 1.6483,3.09655 2.29883,4.69532 l 0.01,0.0195 0.01,0.0215 c 2.83843,6.48161 6.22043,16.83498 8.42773,25.51953 0.59382,2.33631 0.95899,4.78681 1.3125,7.28516 0.17589,1.243 0.52912,2.569 0.73047,3.67578 0.0989,0.54346 0.0988,0.48331 0.0918,0.79688 -163.3903,-0.21428 -99.16176,-0.10907 -265.07813,-0.34961 0.0474,-0.28066 0.0747,-0.45999 0.125,-0.78907 0.18026,-1.17829 0.68634,-3.61338 1.0586,-5.48047 l 0.002,-0.008 c 0.42547,-2.08617 0.79309,-4.1414 1.24219,-6.13476 3.27972,-10.97696 6.95764,-21.06223 12.7832,-31.72852 l 0.084,-0.15234 0.0508,-0.16602 c 0.0568,-0.18182 0.87767,-1.63292 1.49805,-2.67578 1.964,-3.30144 2.55271,-4.53795 6.10742,-9.45312 l 0.002,-0.004 0.004,-0.004 c 14.69283,-20.5501 33.25674,-35.75831 55.39649,-45.42187 l 0.082,-0.0371 0.0781,-0.0449 c 1.35802,-0.7675 4.69764,-2.11914 6.54493,-2.64063 l 0.0684,-0.0195 0.0684,-0.0254 c 1.42708,-0.53264 2.8667,-1.04454 4.32032,-1.5332 l 0.0352,-0.0117 0.0332,-0.0137 c 3.06218,-1.17366 6.15034,-2.0427 9.34179,-2.78321 8.36727,-1.94145 16.76938,-3.70492 25.19727,-4.23047 l 0.0351,-0.004 0.0371,-0.002 c 0.65925,-0.0683 1.38978,-0.12359 2.14844,-0.16601 2.6546,-0.11408 5.39806,-0.17773 8.1875,-0.17774 z m -21.6875,8.78711 c -0.65694,-0.0227 -0.99046,0.0881 -1.60156,0.22657 -0.6111,0.13844 -1.36233,0.33484 -2.24609,0.58789 -1.76753,0.5061 -4.05501,1.23455 -6.6211,2.13086 -5.13217,1.79261 -11.36941,4.2534 -16.70312,6.96875 -29.82584,15.20764 -46.66726,33.33263 -59.06446,59.42578 l -0.002,0.004 v 0.002 c -2.33258,4.94962 -4.60227,9.45447 -6.23242,13.25976 -1.63015,3.80529 -2.79405,6.79023 -2.28906,9.51953 l 0.15625,0.84571 0.76562,0.39453 c 0.8616,0.44305 1.27089,0.36825 1.97266,0.43164 0.70177,0.0634 1.52122,0.10034 2.38086,0.12305 1.71927,0.0454 3.59396,0.0351 4.73632,0.0351 4.9424,0 4.75045,-0.14434 8.14258,-0.13281 l 1.38086,0.004 0.32813,-1.3418 c 2.93712,-12.0216 9.9955,-24.09005 15.48437,-34.73828 10.25828,-15.77689 27.44296,-34.27693 47.09961,-46.00196 h 0.002 l 0.002,-0.002 c 4.11994,-2.47196 11.19535,-6.88308 12.13867,-7.47265 l 0.002,-0.002 c 0.6034,-0.37859 0.98037,-0.61015 1.39453,-1.0332 0.10355,-0.10576 0.21601,-0.22319 0.34766,-0.44727 0.13166,-0.22407 0.34553,-0.61161 0.24219,-1.24804 -0.10335,-0.63644 -0.67514,-1.19477 -1.04492,-1.36328 -0.36979,-0.16852 -0.59417,-0.16966 -0.77149,-0.17579 z m -11.3164,7.01368 c -1.15113,0.70463 -1.85704,1.15875 -2.79688,1.72265 -20.28986,12.10375 -37.72461,30.91049 -48.26953,47.14258 l -0.0488,0.0742 -0.041,0.0781 c -5.23627,10.16838 -12.12321,21.99763 -15.41016,34.30664 -2.13808,0.0253 -2.76203,0.11133 -6.86524,0.11133 -1.16305,0 -3.00781,0.01 -4.64453,-0.0332 -0.66789,-0.0176 -1.23837,-0.0524 -1.75976,-0.0898 0.14715,-1.36212 0.67411,-3.4682 1.90429,-6.33985 1.55924,-3.63975 3.82276,-8.14372 6.17774,-13.14062 l 0.002,-0.006 c 12.14262,-25.5549 28.18624,-42.86216 57.48828,-57.80274 v 0.002 c 4.4785,-2.27997 9.64975,-4.34876 14.26368,-6.02539 z"
         id="path19" />
    </g>
    <g
       id="path306"
       style="opacity:1"
       transform="matrix(2.9584851,0,0,2.9584851,-997.66142,-594.36805)">
      <path
         style="baseline-shift:baseline;display:inline;overflow:visible;vector-effect:none;enable-background:accumulate;stop-color:#000000;stop-opacity:1"
         d="m 579.65162,417.82484 c -1.44468,0.26191 -3.55544,0.4498 -5.90679,1.33062 v -0.002 c -2.79531,0.98453 -5.85228,2.86317 -11.62188,6.73302 -4.94078,3.61153 -10.23227,6.58363 -14.53647,10.84586 -0.36753,0.28306 -0.81441,0.67788 -1.35574,1.18913 -0.14389,0.1439 -0.28662,0.29084 -0.42679,0.43594 -0.0281,0.0271 -0.0568,0.0553 -0.0845,0.0822 -0.80675,0.64773 -1.74194,1.53795 -2.39422,2.48551 -0.47896,0.69579 -1.73312,1.79919 -1.07723,2.29378 2.41018,0.69788 6.58847,2.88616 6.90419,3.12002 3.0383,2.22031 5.7153,4.94059 6.02405,4.77452 1.58436,-0.85213 23.54051,-16.5767 36.16116,-27.09389 0.0724,-0.0482 0.0855,-0.15152 0.0457,-0.299 0.173,-0.11183 -0.16994,-0.607 -0.98142,-1.68897 -0.20041,-0.22547 -0.44227,-0.40815 -0.65504,-0.62081 -0.40576,-0.40552 -0.70974,-0.92651 -1.18455,-1.24844 -1.66841,-1.13125 -3.06025,-2.09986 -5.61694,-2.24359 -0.62875,-0.0859 -1.76438,-0.0179 -3.29348,-0.0936 z m 32.4851,1.16628 c -1.09225,0.0306 -2.13852,0.37138 -3.17706,0.68014 -1.59678,0.52104 -3.41525,1.28259 -5.23807,2.18654 -0.19788,-0.0108 -0.961,0.37477 -2.33487,1.22334 -0.0279,0.0167 -0.0566,0.0359 -0.0844,0.0525 -1.0864,0.60702 -2.11275,1.23034 -3.01045,1.83048 -1.18498,0.73981 -2.05481,1.31765 -2.66582,1.77796 -2.44643,1.60236 -5.00713,3.42814 -6.04145,4.405 -0.70116,0.70115 -8.18142,6.54358 -16.59519,12.97076 l -3.28206,2.48779 0.12782,-0.15292 -0.39942,0.35605 c 0,0 -11.25291,8.07216 -11.87065,8.99258 -0.0238,1.90164 1.36716,5.63359 1.54186,8.5117 0.19337,3.18586 -1.09212,8.95658 -0.55463,9.5591 1.69951,0.70582 4.05221,-1.01076 6.01145,-2.38979 2.47567,-1.61143 5.21038,-3.26197 8.95515,-6.28675 1.96944,-1.62339 3.99964,-3.18141 5.83604,-4.95732 0.06,-0.0381 0.11986,-0.076 0.18031,-0.11417 3.0383,-1.98658 7.1265,-5.13992 9.22994,-6.89279 0.18334,-0.16177 0.41238,-0.35909 0.68472,-0.58884 0.69108,-0.58311 1.65469,-1.37478 2.81417,-2.31206 3.33436,-2.69539 8.29531,-6.60583 13.09629,-10.30494 1.7779,-1.3927 3.48122,-2.73936 5.03265,-3.98275 0.009,-0.008 0.0124,-0.0118 0.0206,-0.0182 l 3.37564,-2.16596 c 1.64605,-1.28818 3.11004,-2.33071 4.89342,-3.41445 1.73887,-1.3911 4.08492,-2.1098 4.38217,-3.85949 0.29724,-1.74969 -0.13241,-2.67014 -3.21359,-4.78845 -0.98866,-0.62614 -1.99503,-1.16052 -3.33912,-1.96055 -0.73663,-0.43845 -2.14134,-0.84449 -4.37533,-0.84449 z m 34.80857,1.94915 c -1.25353,0.004 -2.50181,0.13764 -3.72257,0.388 -6.85612,1.40615 -15.19242,8.64749 -51.18463,36.81021 -11.56892,8.99805 -23.8399,18.11342 -27.22877,20.33372 -3.06563,1.98363 -4.76959,3.1935 -5.49599,4.10828 -1.22206,0.45036 -2.49368,1.03358 -3.73396,1.73461 -1.19287,0.69583 -2.28028,1.39098 -3.13598,1.99709 -0.5639,0.17758 -1.12109,0.3696 -1.65701,0.57287 -4.81362,1.58521 -9.87638,2.55709 -14.84003,3.27293 -8.2557,0.75162 -16.50494,0.11834 -24.77295,-0.35149 -7.01146,-0.46742 -14.84093,-1.16858 -17.52867,-1.75286 -2.80459,-0.46743 -5.0258,-0.58338 -5.0258,-0.23281 0,0.46744 3.50528,2.45447 7.71217,4.55792 4.32373,2.10343 15.98212,6.95532 15.74841,7.30589 -0.35058,0.23373 -15.5147,-3.91839 -23.34417,-5.78811 -9.6992,-2.45402 -17.64462,-3.62168 -25.35723,-3.73854 -1.35699,-0.0261 -2.67428,-0.0697 -3.90287,-0.12553 0.0208,-0.20458 0.83398,-2.05552 1.04309,-2.57926 3.98147,-9.97222 30.29279,-11.77198 43.19196,-10.06852 6.46534,0.85381 12.43198,1.75148 18.67976,2.33636 3.65018,0.34169 7.31238,0.78565 10.97712,0.68425 2.88476,-0.0798 5.71717,-0.009 8.59781,-1.01556 2.24663,-0.72251 3.53899,-1.17492 5.12166,-2.6818 0.8866,-0.79029 1.75195,-1.70997 2.64984,-2.79364 0.58534,-0.68566 1.06582,-1.34272 1.44703,-1.96512 1.88743,-2.62515 1.99662,-4.22184 1.70722,-9.72065 -0.12015,-2.40297 -0.62377,-4.38124 -1.38541,-5.8155 0.0453,-0.60441 -0.69384,-1.37602 -2.47181,-2.94884 -2.99978,-2.5944 -8.41816,-3.67007 -11.45527,-2.8758 -0.87726,0.0686 -1.95595,0.17237 -3.26835,0.30584 -3.73603,0.42698 -8.93417,0.75427 -12.03271,0.89698 -0.6759,-0.0601 -1.52174,-0.0799 -2.57453,-0.0799 -8.41376,0 -23.60527,-3.38842 -37.39449,-8.29645 -19.8814,-7.13352 -33.69819,-10.54716 -51.07965,-10.48524 -9.81828,0.0349 -19.99549,2.17005 -28.81046,6.12819 -0.54396,-0.0835 -1.40284,0.28223 -2.74342,1.08412 -1.27691,0.53568 -5.4043,2.84966 -9.80054,5.61009 -0.62636,0.38545 -1.29582,0.76503 -1.90122,1.20966 -7.15622,5.25585 -12.51319,9.07306 -20.36795,17.16578 -0.11511,0.0646 -0.20682,0.1634 -0.28302,0.28986 -1.76954,1.77443 -3.44638,3.52329 -4.94819,5.181 -3.20238,3.0511 -5.82948,6.77745 -8.34211,10.4396 -1.55497,2.31105 -3.06598,4.63251 -4.58985,6.96354 l -0.65961,1.01793 -3.19761,4.70856 c -0.11114,0.16369 -0.0662,0.17769 0,0.23508 l 3.63582,3.14969 c 4.01527,3.70273 7.50982,5.19787 10.74088,8.39231 5.83607,5.76995 10.712,12.47586 15.37866,19.22675 1.85112,2.67785 3.1673,5.69755 4.98016,8.40144 1.4008,2.08929 2.79814,4.2148 4.54421,6.02547 1.98207,2.0554 3.56809,4.65295 6.64629,5.4024 1.05173,-0.35058 6.30987,-1.86973 11.80218,-3.50574 21.03442,-6.19346 34.94049,-6.7773 58.42891,-2.45355 13.67236,2.45401 46.39209,2.57087 59.12959,0 17.06669,-3.2768 29.4265,-7.82942 43.95406,-17.78201 1.15435,-0.55923 2.61772,-1.5633 4.42553,-3.0196 0.59833,-0.46744 1.1153,-0.89485 1.55201,-1.28497 8.79961,-6.62896 18.63055,-15.24483 30.8167,-26.64222 8.53061,-7.82947 25.12625,-23.37156 36.92888,-34.47305 11.9195,-11.10149 21.85241,-21.26903 22.20298,-22.55447 0.0656,-0.28401 0.0933,-0.58482 0.0845,-0.89926 0.0108,-0.0117 0.0226,-0.0219 0.0319,-0.0342 0.43566,-0.74061 -0.71475,-2.31689 -1.31008,-3.36194 -0.27497,-0.48267 -0.64734,-0.90695 -1.02707,-1.31237 -0.74294,-0.79318 -1.53322,-1.5623 -2.43074,-2.1751 -1.66628,-1.13769 -3.71905,-2.31175 -5.4001,-2.73202 -1.24216,-0.26857 -2.50101,-0.39482 -3.75452,-0.39028 z"
         id="path14" />
      <path
         style="baseline-shift:baseline;display:inline;overflow:visible;fill:#000000;stroke:#ffffff;stroke-width:0.3;stroke-dasharray:none;stroke-opacity:1;enable-background:accumulate;stop-color:#000000;stop-opacity:1"
         d="m 581.08789,415.7832 -1.74805,0.31641 c -0.868,0.15736 -2.27819,0.39417 -3.84179,0.76562 v -0.1875 L 573.16211,417.5 c -0.007,0.003 -0.0162,0.009 -0.0234,0.0117 -0.002,8e-4 -0.004,10e-4 -0.006,0.002 -3.0681,1.08558 -6.21368,3.04608 -11.98633,6.91797 l -0.0293,0.0195 -0.0293,0.0195 c -4.82496,3.52687 -10.19814,6.53158 -14.7207,11.00586 -0.004,0.004 -0.01,0.006 -0.0137,0.01 -0.40504,0.32307 -0.82418,0.68606 -1.32618,1.16015 l -0.0176,0.0176 -0.0176,0.0176 c -0.15595,0.15596 -0.30679,0.30959 -0.44922,0.45703 -0.0149,0.0145 -0.0336,0.032 -0.0449,0.043 l 0.12304,-0.10937 c -0.90246,0.72457 -1.935,1.68962 -2.74023,2.85937 -0.0797,0.11576 -0.54153,0.60777 -0.96484,1.22461 -0.21166,0.30842 -0.45601,0.65586 -0.56836,1.28516 -0.11236,0.6293 0.21715,1.70376 0.8457,2.17773 l 0.25781,0.19336 0.3086,0.0898 c 0.99487,0.28808 2.62514,0.9873 3.96875,1.63086 0.6718,0.32178 1.28163,0.63125 1.73437,0.86914 0.22637,0.11895 0.41574,0.22059 0.54492,0.29297 0.12918,0.0724 0.27976,0.18473 0.10156,0.0527 l 0.004,0.002 0.004,0.004 c 1.44182,1.05364 2.83609,2.25669 3.92578,3.19531 0.54484,0.46931 1.00886,0.86939 1.41211,1.18359 0.20162,0.1571 0.37733,0.29073 0.62109,0.43164 0.12188,0.0705 0.25502,0.14835 0.50586,0.22461 0.25085,0.0763 0.73232,0.23914 1.42383,-0.13281 0.44465,-0.23915 0.86316,-0.53356 1.65234,-1.07422 0.78919,-0.54065 1.83164,-1.26938 3.07617,-2.15234 2.48908,-1.76592 5.78345,-4.14604 9.42383,-6.82813 7.28076,-5.36416 15.93647,-11.93274 22.30078,-17.23633 l -0.15039,0.11329 c 0.47653,-0.31725 0.76867,-0.91152 0.82813,-1.31836 0.008,-0.055 -0.0117,-0.0709 -0.008,-0.1211 10e-4,-0.005 0.009,-0.0103 0.01,-0.0156 0.0877,-0.41336 0.0274,-0.6988 -0.0254,-0.90235 -0.10557,-0.40709 -0.23056,-0.58823 -0.35351,-0.79101 -0.24592,-0.40556 -0.54345,-0.80076 -0.95508,-1.34961 l -0.0449,-0.0586 -0.0488,-0.0547 c -0.3533,-0.39748 -0.6266,-0.59736 -0.72461,-0.69532 -0.18442,-0.1843 -0.52717,-0.84106 -1.44141,-1.46093 -1.64863,-1.11784 -3.52576,-2.35486 -6.45703,-2.53321 -0.58105,-0.0722 -1.29628,-0.0617 -1.94336,-0.0605 z m 31.16992,1.45117 -0.16992,0.004 c -1.42509,0.0399 -2.61787,0.45195 -3.62695,0.75195 l -0.0234,0.008 -0.0215,0.006 c -1.68191,0.54881 -3.54178,1.33466 -5.40625,2.25586 -0.0373,0.0184 -0.14945,0.0193 -0.18946,0.0351 -0.21044,0.0834 -0.40641,0.1793 -0.63281,0.29688 -0.44701,0.23215 -1.00461,0.55467 -1.70117,0.98437 -0.019,0.0114 -0.006,0.004 -0.0195,0.0117 -9.5e-4,5.9e-4 -10e-4,10e-4 -0.002,0.002 -0.0396,0.0242 -0.0806,0.051 -0.0605,0.0391 -1.10519,0.61889 -2.15412,1.25595 -3.08594,1.8789 -1.16142,0.72615 -2.03905,1.30641 -2.71094,1.81055 -2.46497,1.61649 -4.94699,3.3462 -6.22656,4.55469 l -0.0176,0.0176 -0.0176,0.0176 c 0.066,-0.066 -0.6409,0.55013 -1.5625,1.28907 -0.92159,0.73894 -2.18245,1.73321 -3.68359,2.90625 -3.00229,2.34606 -6.97142,5.41092 -11.17383,8.62109 l -3.22851,2.44726 -0.0293,-0.0273 -0.33789,0.30078 c -0.0807,0.0579 -2.77846,1.99274 -5.63867,4.10352 -1.45134,1.07106 -2.92325,2.17183 -4.08594,3.07422 -0.58135,0.45119 -1.08438,0.8524 -1.48242,1.1875 -0.39805,0.3351 -0.58065,0.36847 -1.01368,1.01367 l -0.29101,0.43359 -0.006,0.52149 c -0.0174,1.39244 0.37828,2.79296 0.74414,4.32031 0.36586,1.52735 0.7277,3.11635 0.80078,4.32031 0.0786,1.29458 -0.16616,3.51288 -0.39648,5.43164 -0.11516,0.95939 -0.22426,1.85013 -0.27149,2.61133 -0.0236,0.3806 -0.0351,0.72525 -0.008,1.08789 0.0273,0.36265 -0.0829,0.76485 0.5625,1.48828 l 0.26563,0.29883 0.37109,0.15234 c 1.5792,0.65586 3.10824,0.15338 4.35156,-0.45703 1.2331,-0.60539 2.34818,-1.42038 3.3125,-2.09961 2.4351,-1.5843 5.26,-3.29254 9.07617,-6.375 l 0.006,-0.004 0.008,-0.006 c 1.87356,-1.54436 3.86565,-3.09432 5.74218,-4.88281 0.0314,-0.0199 0.0621,-0.0406 0.0937,-0.0605 l 0.0117,-0.006 0.0117,-0.008 c 3.14661,-2.0574 7.22529,-5.2076 9.39258,-7.01368 l 0.0195,-0.0156 0.0195,-0.0176 c 0.17051,-0.15045 0.38981,-0.33937 0.6543,-0.5625 0.67493,-0.56948 1.63171,-1.35666 2.78515,-2.28906 3.31791,-2.68209 8.27413,-6.5884 13.06446,-10.2793 l 0.006,-0.004 0.006,-0.004 c 1.76802,-1.38497 3.46152,-2.7243 5.00976,-3.96484 l 3.35352,-2.15235 0.0644,-0.0508 c 1.61028,-1.26018 3.00375,-2.25113 4.72461,-3.29687 l 0.0957,-0.0586 0.0879,-0.0703 c 0.68415,-0.54732 1.65055,-1.05311 2.62305,-1.71484 0.9725,-0.66174 2.12306,-1.63228 2.39258,-3.21875 0.18047,-1.06237 0.11151,-2.39513 -0.58985,-3.49414 -0.70135,-1.09902 -1.75245,-1.92845 -3.35937,-3.03321 l -0.0273,-0.0176 -0.0274,-0.0195 c -1.06205,-0.67262 -2.07242,-1.20556 -3.38086,-1.98437 -1.16951,-0.69611 -2.8251,-1.0918 -5.27148,-1.0918 l 0.28906,0.0234 z m 37.52735,1.94336 -2.84571,0.01 c -1.37439,0.004 -2.73748,0.15089 -4.06836,0.42383 -7.74243,1.58793 -15.93324,8.99268 -51.91406,37.14648 -11.54557,8.97971 -23.9363,18.17042 -27.10742,20.24805 -2.77184,1.79352 -4.36126,2.8824 -5.46289,4.07812 -1.21285,0.46512 -2.45168,1.01651 -3.66992,1.70508 l -0.01,0.006 -0.0117,0.006 c -1.13772,0.66366 -2.14622,1.3157 -3.01758,1.92188 -0.4864,0.15708 -0.96956,0.32124 -1.43945,0.49804 -10e-4,3.9e-4 -0.003,-3.9e-4 -0.004,0 -4.64806,1.53035 -9.58975,2.4846 -14.47656,3.19141 -8.04761,0.72941 -16.19297,0.115 -24.46875,-0.35547 -6.98179,-0.46544 -14.98978,-1.22078 -17.27148,-1.7168 l -0.043,-0.008 -0.041,-0.008 c -1.45313,-0.24219 -2.75389,-0.39644 -3.76953,-0.44531 -0.50781,-0.0244 -0.92971,-0.0289 -1.36914,0.0254 -0.21971,0.0271 -0.4371,0.0493 -0.78711,0.20507 -0.175,0.0779 -0.39931,0.19016 -0.64844,0.45899 -0.24912,0.26883 -0.49414,0.76729 -0.49414,1.25195 0,1.15381 0.4616,1.27399 0.67774,1.48828 0.21614,0.2143 0.42266,0.3739 0.66211,0.54688 0.4789,0.34596 1.08003,0.71944 1.80859,1.14453 1.33771,0.7805 3.15628,1.7344 5.08008,2.70508 -2.02851,-0.51712 -4.31099,-1.12155 -5.92773,-1.50781 -9.78858,-2.47664 -17.88504,-3.67111 -25.75391,-3.79102 h -0.008 c -0.47534,-0.009 -0.90386,-0.0316 -1.36719,-0.0449 0.0302,-0.0729 0.0858,-0.1988 0.10937,-0.25781 0.75559,-1.89248 2.73683,-3.65197 5.74219,-5.08985 3.00536,-1.43787 6.9381,-2.52247 11.17578,-3.24609 8.47537,-1.44724 18.19923,-1.46552 24.41602,-0.64453 6.44602,0.85126 12.43571,1.75301 18.74609,2.34375 3.61822,0.3387 7.35104,0.79761 11.18946,0.6914 2.82092,-0.078 5.8771,0.0173 9.11523,-1.11133 2.24241,-0.72196 3.9638,-1.36421 5.75195,-3.0625 0.95503,-0.8546 1.86858,-1.82545 2.79688,-2.94531 l 0.006,-0.006 c 0.61476,-0.72194 1.12742,-1.42789 1.55468,-2.11914 1.00947,-1.41662 1.67783,-2.81625 1.94336,-4.4707 0.26897,-1.67583 0.20223,-3.53572 0.0566,-6.30274 -0.12776,-2.55517 -0.65472,-4.72184 -1.55078,-6.44921 -0.16671,-0.60096 -0.45433,-1.12242 -0.81054,-1.53516 -0.51751,-0.59963 -1.17874,-1.20507 -2.08399,-2.00586 l -0.008,-0.006 -0.008,-0.006 c -1.80419,-1.56037 -4.13456,-2.54505 -6.46094,-3.08984 -2.32638,-0.54479 -4.63118,-0.66695 -6.58398,-0.15625 l 0.30664,-0.0508 c -0.9029,0.0706 -1.991,0.17459 -3.3086,0.30859 l -0.0117,0.002 h -0.01 c -3.64402,0.41647 -8.8121,0.74489 -11.88086,0.88672 -0.7297,-0.0568 -1.53181,-0.0801 -2.52735,-0.0801 -7.94236,0 -23.1576,-3.33702 -36.80273,-8.19336 l -0.004,-0.002 c -19.95475,-7.15961 -34.06084,-10.65063 -51.67382,-10.58789 -10.05134,0.0357 -20.42722,2.21052 -29.47657,6.26563 -1.02007,0.11918 -1.87996,0.54287 -2.9707,1.19531 l 0.2207,-0.11133 c -1.69491,0.71104 -5.61362,2.95361 -10.05468,5.74219 -0.58677,0.36058 -1.29189,0.75688 -2.00586,1.28125 -7.1462,5.24849 -12.64758,9.17656 -20.58789,17.35742 l 0.39843,-0.30664 c -0.43377,0.24344 -0.737,0.59881 -0.92578,0.91211 l 0.25977,-0.33203 c -1.78521,1.79014 -3.48002,3.55795 -5.00586,5.24218 l 0.0898,-0.0918 c -3.37179,3.21251 -6.05685,7.04205 -8.57812,10.71679 l -0.004,0.006 -0.004,0.006 c -1.56487,2.32577 -3.08091,4.65529 -4.60351,6.98438 l -0.002,0.002 -0.65039,1.00586 -3.1875,4.69336 c -0.1303,0.1919 -0.50596,0.54326 -0.3418,1.45313 0.0821,0.45493 0.3581,0.81522 0.5,0.95898 0.14189,0.14376 0.17354,0.1577 0.14258,0.13086 h 0.002 l 3.59375,3.11328 c 4.215,3.88691 7.7211,5.40913 10.69727,8.35156 5.70032,5.63574 10.51927,12.24883 15.16992,18.97657 1.72162,2.49051 3.03436,5.50153 4.96484,8.38085 1.39484,2.0804 2.84079,4.29793 4.73828,6.26563 1.79417,1.86055 3.6459,4.95174 7.49414,5.88867 l 0.49024,0.11914 0.47851,-0.1582 c 0.82985,-0.27662 6.245,-1.85026 11.74414,-3.48828 l 0.004,-0.002 c 20.8597,-6.14153 34.27335,-6.70426 57.61133,-2.4082 h 0.004 0.004 c 14.13668,2.53735 46.44293,2.68135 59.76953,-0.004 17.20804,-3.30394 29.91087,-7.98293 44.61524,-18.05665 l -0.22657,0.13086 c 1.37109,-0.66423 2.8966,-1.73101 4.75586,-3.22851 0.57057,-0.44618 1.06529,-0.85784 1.51172,-1.25195 l 0.008,-0.008 c 0.0309,-0.0273 0.0752,-0.0589 0.10547,-0.0859 8.85058,-6.67707 18.68127,-15.2925 30.83399,-26.65821 l 0.0117,-0.0117 c 8.54821,-7.84583 25.12492,-23.36895 36.92578,-34.46875 l 0.008,-0.008 c 5.97378,-5.56404 11.4488,-10.8927 15.48828,-15.00586 2.02078,-2.05763 3.68242,-3.8094 4.88086,-5.15234 0.59922,-0.67147 1.08136,-1.23692 1.45117,-1.71289 0.36981,-0.47598 0.62997,-0.60675 0.87305,-1.49805 l 0.008,-0.0332 0.008,-0.0332 c 0.10233,-0.44302 0.14146,-0.89523 0.12891,-1.34375 l -0.13281,0.35352 c 0.13435,-0.49855 0.26751,-1.02142 0.1914,-1.38672 -0.10633,-0.51039 -0.28756,-0.91559 -0.47851,-1.29883 -0.3819,-0.76647 -0.84298,-1.45288 -1.08789,-1.88281 -0.39319,-0.69019 -0.86354,-1.20911 -1.26953,-1.64258 -0.78043,-0.8332 -1.6568,-1.69609 -2.72266,-2.42383 -1.75615,-1.19905 -3.86238,-2.45923 -5.96289,-2.98437 l -0.0273,-0.008 -0.0274,-0.006 c -0.47427,-0.10254 -0.95283,-0.0831 -1.42969,-0.14844 z m -69.97071,0.4043 c 1.44192,0.0586 2.68515,0.0459 2.89258,0.0742 l 0.0703,0.008 0.0703,0.004 c 2.15165,0.12096 3.05217,0.80736 4.73046,1.94531 0.0354,0.024 0.30259,0.41038 0.92969,1.03711 0.3077,0.30754 0.48597,0.44866 0.54883,0.51172 0.0938,0.12575 0.11011,0.15565 0.1875,0.26172 -6.17428,5.09259 -14.23529,11.24919 -21.16602,16.35547 -3.62428,2.67022 -6.90534,5.04025 -9.37304,6.79101 -1.23385,0.87538 -2.2652,1.59567 -3.0293,2.11914 -0.28021,0.19197 -0.27352,0.18143 -0.48828,0.32227 -0.25845,-0.21471 -0.49209,-0.40575 -0.85547,-0.71875 -1.08557,-0.93508 -2.55,-2.20248 -4.14648,-3.36914 -0.24367,-0.17938 -0.29914,-0.19427 -0.46485,-0.28711 -0.16916,-0.0948 -0.37955,-0.20789 -0.62695,-0.33789 -0.49481,-0.26 -1.13805,-0.58598 -1.85156,-0.92774 -0.86717,-0.41535 -1.80483,-0.74391 -2.73828,-1.11523 0.10558,-0.13368 0.15553,-0.17601 0.26562,-0.33594 0.49933,-0.72536 1.33584,-1.5424 2.04688,-2.11328 l 0.0644,-0.0527 0.0606,-0.0566 c 0.0328,-0.0319 0.0601,-0.0588 0.0801,-0.0781 l 0.0215,-0.0215 0.0215,-0.0215 c 0.13201,-0.13665 0.26215,-0.27159 0.38867,-0.39844 0.50709,-0.47798 0.92032,-0.83883 1.20313,-1.05664 l 0.0859,-0.0664 0.0781,-0.0762 c 4.06737,-4.02771 9.24562,-6.96396 14.2793,-10.63672 5.7343,-3.84617 8.69344,-5.63551 11.20312,-6.52344 l 0.0566,-0.0215 c 2.04887,-0.7675 3.88699,-0.9392 5.45508,-1.21484 z m 32.35547,1.16602 c 1.99545,0.006 3.14369,0.41422 3.44531,0.59375 1.36235,0.81089 2.35186,1.33888 3.25782,1.91015 1.45561,1.00325 2.16684,1.69336 2.375,2.01953 0.20945,0.32822 0.20465,0.33221 0.0879,1.01954 -0.0277,0.16321 -0.19865,0.42539 -0.90821,0.9082 -0.70955,0.48281 -1.78511,1.03317 -2.83984,1.87695 l 0.18359,-0.13086 c -1.8459,1.12174 -3.38067,2.21703 -5.0625,3.53321 l 0.13282,-0.0957 -3.44336,2.21094 -0.0625,0.0488 c -0.0419,0.0327 -0.0306,0.0251 -0.0508,0.043 -1.54188,1.23564 -3.23616,2.57466 -5.00586,3.96093 -4.80753,3.70432 -9.76943,7.6141 -13.11719,10.32032 -1.16551,0.94215 -2.13457,1.7392 -2.8418,2.33593 -0.26784,0.22596 -0.49256,0.41781 -0.68359,0.58594 -2.04088,1.70042 -6.13238,4.85301 -9.06055,6.76758 -0.0538,0.034 -0.10652,0.0675 -0.16015,0.10156 l -0.1504,0.0957 -0.1289,0.125 c -1.73643,1.67923 -3.72268,3.20868 -5.71875,4.85351 -3.66274,2.95852 -6.29889,4.54679 -8.81055,6.18164 l -0.0273,0.0176 -0.0254,0.0176 c -0.98951,0.69647 -2.01947,1.41975 -2.86719,1.83594 -0.24673,0.12113 -0.23929,0.0476 -0.42578,0.10742 0.0494,-0.52258 0.0977,-1.03932 0.17969,-1.72266 0.22971,-1.91369 0.53081,-4.17122 0.41601,-6.0625 -0.10162,-1.67415 -0.52328,-3.39026 -0.89062,-4.92383 -0.30097,-1.25646 -0.45521,-2.16926 -0.53125,-2.83398 0.33303,-0.2788 0.78196,-0.63882 1.32031,-1.05664 1.12097,-0.87001 2.57847,-1.95945 4.01758,-3.02149 2.87821,-2.12406 5.68359,-4.13867 5.68359,-4.13867 l 0.0762,-0.0527 0.2168,-0.19336 0.0156,0.0156 3.28516,-2.48828 0.002,-0.002 c 4.21136,-3.21701 8.18851,-6.2873 11.20508,-8.64453 1.50829,-1.17862 2.77572,-2.17903 3.7168,-2.9336 0.94108,-0.75456 1.43306,-1.13033 1.84961,-1.54687 l -0.0352,0.0351 c 0.77702,-0.73385 3.39199,-2.63774 5.79688,-4.21289 l 0.0488,-0.0312 0.0469,-0.0351 c 0.53553,-0.40345 1.37502,-0.96467 2.53906,-1.69141 l 0.0234,-0.0137 0.0215,-0.0156 c 0.85072,-0.56872 1.84186,-1.17072 2.89258,-1.75781 l 0.0215,-0.0117 0.0215,-0.0137 c 0.0827,-0.0494 0.11152,-0.068 0.0859,-0.0527 l 0.01,-0.008 0.0117,-0.006 c 0.66447,-0.41041 1.17245,-0.70207 1.49414,-0.86915 0.0833,-0.0433 0.10616,-0.0509 0.16016,-0.0762 l 0.12305,0.006 0.41406,-0.20508 c 1.75135,-0.8685 3.49709,-1.59548 4.98437,-2.08203 1.04878,-0.31182 1.93602,-0.57389 2.68555,-0.59765 z m 34.78125,1.94531 c 1.11849,-0.004 2.23834,0.11053 3.33985,0.3457 1.26224,0.31933 3.24897,1.39784 4.82031,2.47071 0.72918,0.49786 1.43517,1.17262 2.14062,1.92578 0.35347,0.37737 0.62646,0.70727 0.78321,0.98242 0.35041,0.61512 0.76287,1.24091 0.99609,1.70898 0.0344,0.069 0.0298,0.0743 0.0547,0.13282 l -0.0215,0.0215 0.0195,0.71484 c 0.004,0.1595 -0.0142,0.28657 -0.0371,0.40235 0.11991,-0.44115 0.0261,-0.0964 -0.24609,0.2539 -0.28706,0.36947 -0.73129,0.89529 -1.29883,1.53125 -1.13506,1.27193 -2.76746,2.99668 -4.76367,5.0293 -3.99242,4.06524 -9.44262,9.36995 -15.38476,14.9043 l -0.002,0.004 -0.004,0.002 c -11.80004,11.09905 -28.40046,26.64512 -36.91407,34.45898 l -0.006,0.006 -0.006,0.006 c -12.16452,11.37717 -21.95609,19.9542 -30.67382,26.52148 l -0.0586,0.0449 -0.0547,0.0469 c -0.39853,0.35601 -0.88706,0.76107 -1.4629,1.21094 l -0.01,0.01 -0.0117,0.008 c -1.75446,1.41332 -3.15326,2.35291 -4.08984,2.80664 l -0.11719,0.0566 -0.10938,0.0742 c -14.35075,9.83146 -26.36762,14.25815 -43.29296,17.50781 l -0.008,0.002 h -0.008 c -12.15495,2.45329 -45.25959,2.36292 -58.4668,-0.006 h -0.008 c -23.63223,-4.34945 -38.02833,-3.74732 -59.23242,2.4961 l -0.004,0.002 h -0.002 c -5.19087,1.54622 -9.64002,2.83137 -11.22266,3.33594 -2.09053,-0.68383 -3.40854,-2.63918 -5.46289,-4.76953 -1.59464,-1.65364 -2.9448,-3.68698 -4.35156,-5.78516 -1.69524,-2.52845 -3.01352,-5.55669 -4.99414,-8.42188 -4.68267,-6.77404 -9.61607,-13.5724 -15.58789,-19.47656 -3.48596,-3.44644 -6.96962,-4.91504 -10.78516,-8.43359 l -0.0195,-0.0195 -2.57812,-2.23242 2.43164,-3.58399 0.66601,-1.02734 0.004,-0.006 c 1.52074,-2.32626 3.02397,-4.63596 4.56445,-6.92578 l 0.01,-0.0117 c 3e-4,-4.5e-4 -3e-4,-0.002 0,-0.002 2.50097,-3.64484 5.06659,-7.26242 8.0957,-10.14843 l 0.0469,-0.0449 0.043,-0.0469 c 1.47778,-1.63118 3.13676,-3.36237 4.89063,-5.12109 l 0.12305,-0.12305 0.0273,-0.0273 0.002,-0.002 0.14844,-0.15429 c 7.76921,-8.00458 12.98025,-11.70945 20.14649,-16.97266 0.49211,-0.36143 1.11951,-0.72244 1.7832,-1.13086 l 0.006,-0.004 0.008,-0.004 c 4.35141,-2.73229 8.68797,-5.11819 9.54688,-5.47852 l 0.11328,-0.0469 0.10742,-0.0645 c 1.25903,-0.7531 2.06639,-0.78051 1.57812,-0.85546 l 0.51172,0.0781 0.47266,-0.21289 c 8.56994,-3.84811 18.52919,-5.9406 28.09765,-5.97461 17.14866,-0.0611 30.6767,3.27644 50.48243,10.38281 l 0.002,0.002 h 0.002 c 13.93227,4.95894 29.09805,8.39843 37.98242,8.39843 1.03082,0 1.83675,0.0206 2.41797,0.0723 l 0.11914,0.01 0.11719,-0.004 c 3.13158,-0.14423 8.33448,-0.47187 12.15235,-0.9082 l -0.0234,0.004 c 1.3072,-0.13294 2.37689,-0.23614 3.22851,-0.30273 l 0.15625,-0.0117 0.15039,-0.0391 c 1.08431,-0.28357 3.00641,-0.26534 4.89844,0.17773 1.89046,0.44271 3.76716,1.29136 4.96289,2.32422 10e-4,8.6e-4 0.003,10e-4 0.004,0.002 0.86216,0.76328 1.45712,1.33017 1.74023,1.65821 0.0963,0.11152 0.0923,0.11841 0.10742,0.14453 l -0.0156,0.19531 0.23828,0.44726 c 0.59862,1.12728 1.07325,2.87514 1.18359,5.08204 v 0.002 0.002 c 0.14363,2.72896 0.1674,4.41589 -0.0176,5.56836 -0.18497,1.15247 -0.50855,1.84829 -1.36328,3.03711 l -0.0371,0.0527 -0.0332,0.0547 c -0.32555,0.53154 -0.7513,1.11685 -1.28515,1.74219 l -0.01,0.01 -0.008,0.0117 c -0.85574,1.0328 -1.66152,1.88572 -2.4668,2.60352 l -0.0215,0.0176 -0.0195,0.0195 c -1.36444,1.2991 -2.22106,1.566 -4.45118,2.2832 l -0.0195,0.008 -0.0215,0.006 c -2.5187,0.88009 -5.12325,0.8365 -8.06836,0.91797 -3.49106,0.0966 -7.08349,-0.3311 -10.76563,-0.67578 -6.18517,-0.57902 -12.12861,-1.47371 -18.61328,-2.33008 -6.68238,-0.88247 -16.56439,-0.85381 -25.46484,0.66602 -4.45023,0.75991 -8.64676,1.88803 -12.09766,3.53906 -3.45089,1.65104 -6.25117,3.85754 -7.48633,6.95117 -0.0781,0.1956 -0.34526,0.81775 -0.58203,1.38282 -0.11838,0.28253 -0.23,0.55737 -0.32226,0.79297 -0.0461,0.11779 -0.0871,0.22253 -0.125,0.33203 -0.0379,0.10949 -0.0836,0.0799 -0.13086,0.54492 l -0.1875,1.84375 1.85351,0.084 c 1.24401,0.0565 2.57456,0.10055 3.94727,0.12696 h 0.004 0.004 c 7.55399,0.11445 15.34643,1.25493 24.95313,3.68554 l 0.0117,0.004 0.0117,0.002 c 3.87829,0.92616 9.62702,2.43203 14.44532,3.67578 2.40915,0.62188 4.58601,1.17793 6.19922,1.56836 0.8066,0.19522 1.46885,0.34811 1.97265,0.45117 0.2519,0.0515 0.46003,0.0913 0.66406,0.11915 0.10202,0.0139 0.19809,0.0252 0.34766,0.0293 0.14957,0.004 0.22903,0.27508 1.0957,-0.30273 l 0.29102,-0.19336 0.19336,-0.29297 c 0.30153,-0.4523 0.33325,-1.09509 0.23633,-1.45117 -0.0969,-0.35608 -0.23189,-0.52592 -0.32813,-0.64844 -0.19247,-0.24504 -0.30436,-0.31553 -0.40429,-0.39062 -0.19987,-0.15019 -0.35264,-0.23569 -0.53907,-0.33985 -0.37285,-0.20831 -0.8417,-0.4405 -1.42187,-0.7168 -1.16034,-0.55258 -2.73778,-1.26163 -4.45508,-2.02343 -3.42828,-1.5208 -7.4252,-3.26203 -9.50977,-4.27539 -0.52643,-0.26322 -0.85163,-0.46229 -1.34961,-0.71875 3.72673,0.54867 9.43452,1.07246 15.29102,1.46289 l 0.008,0.002 h 0.01 c 8.24487,0.46852 16.58201,1.1169 25.03125,0.34766 l 0.0449,-0.004 0.0469,-0.008 c 5.01883,-0.7238 10.17844,-1.70895 15.13671,-3.3418 l 0.0371,-0.0137 0.0371,-0.0137 c 0.50149,-0.19021 1.02837,-0.37086 1.5625,-0.53907 l 0.26172,-0.082 0.22461,-0.16015 c 0.79743,-0.56483 1.84598,-1.23498 2.99609,-1.90625 1.15232,-0.65045 2.33913,-1.19576 3.4668,-1.61133 l 0.46094,-0.16992 0.30469,-0.38477 c 0.3643,-0.45878 2.03475,-1.75859 5.07617,-3.72656 l 0.004,-0.002 0.004,-0.004 c 3.60596,-2.36253 15.75353,-11.4014 27.34375,-20.41602 h 0.004 l 0.002,-0.002 c 36.00361,-28.17163 44.48528,-35.25024 50.45508,-36.47461 1.11065,-0.22778 2.24429,-0.34795 3.37695,-0.35156 z m -156.93945,64.12695 c 0.004,0.004 0.0991,0.0131 0.1914,0.14844 -0.0977,-0.0753 -0.19757,-0.15456 -0.1914,-0.14844 z"
         id="path15" />
    </g>
    <g
       id="path315"
       style="opacity:1"
       transform="matrix(2.9584851,0,0,2.9584851,-997.66142,-594.36805)">
      <path
         style="baseline-shift:baseline;display:inline;overflow:visible;vector-effect:none;enable-background:accumulate;stop-color:#000000;stop-opacity:1"
         d="m 360.31738,389.45868 c -4.01093,0.003 -12.05227,-0.20726 -14.65094,0.0178 -1.07884,1.43542 -1.93328,2.31983 -2.91628,5.11822 -0.98298,2.79838 -0.18496,9.82268 1.73693,11.99832 3.85854,2.82121 11.26355,1.69647 16.22415,1.71794 6.70445,-0.0369 31.93259,0.1007 312.25098,0.1007 0,0 4.00947,0.22609 5.37427,-0.97934 2.51271,-2.21925 2.49197,-11.78545 0.74541,-15.22261 -0.80441,-1.58304 -1.58359,-2.5715 -4.44213,-2.94038 -55.9558,0.21542 -1.09595,-0.048 -314.32239,0.18929 z"
         id="path20" />
      <path
         style="baseline-shift:baseline;display:inline;overflow:visible;fill:#000000;stroke:#ffffff;stroke-width:0.3;stroke-dasharray:none;stroke-opacity:1;enable-background:accumulate;stop-color:#000000;stop-opacity:1"
         d="m 674.63281,387.51562 c -55.95471,0.21542 -1.08914,-0.0478 -314.3164,0.18946 l -1.75196,0.002 v 0.002 c -4.18714,-0.0387 -10.4023,-0.20772 -13.04883,0.0215 l -0.77929,0.0664 -0.47071,0.62696 c -1.01953,1.35651 -2.11993,2.60074 -3.16992,5.58984 -0.69263,1.97181 -0.64538,4.48833 -0.30468,7.04492 0.34069,2.5566 0.88187,4.99621 2.38281,6.69532 l 0.125,0.14257 0.15429,0.11133 c 2.45014,1.79144 5.59612,2.16844 8.68946,2.2461 3.09334,0.0777 6.21649,-0.1996 8.56054,-0.18946 h 0.01 0.008 c 6.65627,-0.0366 31.92323,0.0996 312.24219,0.0996 l -0.0996,-0.002 c 0,0 1.10593,0.064 2.41406,-0.041 1.30813,-0.105 2.85726,-0.17248 4.21875,-1.375 1.0974,-0.96923 1.59159,-2.27013 1.96094,-3.70898 0.36936,-1.43885 0.55332,-3.05858 0.60156,-4.70899 0.0965,-3.3008 -0.24453,-6.61053 -1.41406,-8.9121 -0.439,-0.86394 -0.99119,-1.80498 -1.95898,-2.53321 -0.96779,-0.72822 -2.21595,-1.14427 -3.82227,-1.35156 l -0.11328,-0.0156 z m -0.17187,3.50586 c 1.19885,0.16226 1.78664,0.41535 2.11718,0.66407 0.33754,0.25398 0.576,0.59925 0.94141,1.31836 0.57704,1.13558 1.11983,4.32626 1.03516,7.22265 -0.0423,1.4482 -0.21527,2.85307 -0.49414,3.93946 -0.27888,1.08638 -0.72581,1.81272 -0.88477,1.95312 -0.003,0.003 -1.13993,0.42451 -2.17773,0.50781 -1.03781,0.0833 -1.9375,0.0352 -1.9375,0.0352 l -0.0488,-0.004 h -0.0488 c -280.30204,0 -305.48981,-0.13675 -312.24414,-0.0996 h -0.0176 c -2.61295,-0.0101 -5.66258,0.26191 -8.4707,0.19141 -2.71496,-0.0682 -5.07866,-0.53638 -6.50977,-1.49219 -0.43542,-0.60661 -1.17446,-2.57097 -1.45312,-4.66211 -0.29305,-2.19906 -0.15363,-4.59335 0.13672,-5.41992 0.75024,-2.13577 1.35446,-2.92396 2.15234,-3.95312 2.642,-0.14588 9.89521,-0.009 13.76172,-0.0117 h 1.75195 v -0.002 c 307.23189,-0.23031 256.9085,0.026 312.39063,-0.1875 z"
         id="path21" />
    </g>
    <g
       id="circle3"
       style="opacity:1"
       transform="matrix(2.9584851,0,0,2.9584851,-997.66142,-594.36805)">
      <path
         style="baseline-shift:baseline;display:inline;overflow:visible;vector-effect:none;enable-background:accumulate;stop-color:#000000;stop-opacity:1"
         d="m 510.23088,205.73635 a 23.517634,23.517634 0 0 0 -23.51764,23.51762 23.517634,23.517634 0 0 0 23.51764,23.51764 23.517634,23.517634 0 0 0 23.51763,-23.51764 23.517634,23.517634 0 0 0 -23.51763,-23.51762 z m -4.67431,6.13503 a 8.9104078,8.9104078 0 0 1 8.9104,8.91041 8.9104078,8.9104078 0 0 1 -8.9104,8.91041 8.9104078,8.9104078 0 0 1 -8.91042,-8.91041 8.9104078,8.9104078 0 0 1 8.91042,-8.91041 z"
         id="path16" />
      <path
         style="baseline-shift:baseline;display:inline;overflow:visible;fill:#000000;stroke:#ffffff;stroke-width:0.3;stroke-dasharray:none;stroke-opacity:1;enable-background:accumulate;stop-color:#000000;stop-opacity:1"
         d="m 510.23047,203.98437 c -13.93575,0 -25.26952,11.33379 -25.26953,25.26954 -10e-6,13.93575 11.33377,25.27148 25.26953,25.27148 13.93575,0 25.27149,-11.33573 25.27148,-25.27148 -10e-6,-13.93575 -11.33574,-25.26953 -25.27148,-25.26954 z m 0,3.50391 c 12.0411,0 21.76562,9.72452 21.76562,21.76563 10e-6,12.04111 -9.72451,21.76562 -21.76562,21.76562 -12.04112,0 -21.76368,-9.72451 -21.76367,-21.76562 0,-12.04111 9.72256,-21.76563 21.76367,-21.76563 z m -4.67383,2.63086 c -5.86841,-10e-6 -10.66406,4.7937 -10.66406,10.66211 0,5.86841 4.79565,10.66407 10.66406,10.66406 5.8684,0 10.66406,-4.79566 10.66406,-10.66406 0,-5.8684 -4.79566,-10.6621 -10.66406,-10.66211 z m 0,3.50586 c 3.97376,0 7.1582,3.18249 7.1582,7.15625 0,3.97376 -3.18444,7.1582 -7.1582,7.1582 -3.97377,1e-5 -7.1582,-3.18443 -7.1582,-7.1582 0,-3.97377 3.18443,-7.15626 7.1582,-7.15625 z"
         id="path17" />
    </g>
  </g>
</svg>
