<?xml version="1.0" encoding="UTF-8" standalone="no"?>
<svg
   version="1.0"
   width="1024"
   height="1024"
   viewBox="0 0 1024 1024"
   preserveAspectRatio="xMidYMid"
   id="svg301"
   xmlns="http://www.w3.org/2000/svg"
   xmlns:svg="http://www.w3.org/2000/svg">
  <defs
     id="defs301" />
  <g
     fill="#862d00"
     id="g74"
     transform="translate(0,-0.17677669)"
     style="display:inline">
    <circle
       style="fill:#862d00;fill-opacity:1"
       id="path304"
       cx="510.78659"
       cy="263.72858"
       r="20.125"
       transform="translate(0,0.17677669)" />
    <path
       style="display:inline;fill:#862d00;fill-opacity:1"
       d="m 512.5,291.69826 c -2.40937,0 -4.7778,0.0538 -7.07031,0.15234 -0.67518,0.0375 -1.32836,0.0862 -1.92969,0.14844 -7.35775,0.45881 -14.62835,1.99024 -21.80859,3.65626 -2.77561,0.64402 -5.48774,1.40711 -8.19141,2.44336 -1.25989,0.42354 -2.50789,0.86672 -3.74414,1.32813 -1.7508,0.49426 -4.54892,1.61807 -5.92969,2.39843 -19.19354,8.3776 -35.3078,21.58561 -48.02539,39.37305 -3.06655,4.24017 -3.6366,5.40371 -5.30078,8.20117 -0.50659,0.85157 -1.22111,1.96055 -1.42383,2.60938 -5.05758,9.26016 -8.24983,18.02391 -11.07617,27.49023 -0.40032,1.76939 -0.71711,3.55877 -1.08008,5.33789 -0.31604,1.58539 -0.74977,3.64952 -0.91992,4.76172 -0.17015,1.1122 -0.4754,2.26775 0,2.38669 v 0.0137 h 15.5 c 3.63227,0 6.90676,-0.0684 9.5,-0.18359 v 0.2832 l 35.20898,-0.0762 c 0.17677,0.0735 0.37449,0.13427 0.5918,0.17773 0.9,0.2 2.79922,0.29961 4.19922,0.0996 1.4,-0.1 3.50078,-0.19922 4.80078,-0.19922 0.30114,-0.0167 0.56161,-0.0488 0.78906,-0.0996 l 0.81055,-0.002 c 2.14368,-0.006 4.19603,-0.0138 6.16406,-0.0215 l 7.23633,0.2207 c 2.76885,0.0944 28.81381,-0.0613 35.86914,-0.0293 0.046,0.01 0.083,0.02 0.13086,0.0293 1.25828,0.27962 2.67906,0.22548 3.84961,-0.0352 2.11115,0.007 7.25565,-0.01 9.83984,-0.008 0.30418,0.0122 0.47782,0.0321 0.81055,0.043 2.70935,0.12041 5.7102,-0.002 8.71484,-0.0508 17.23025,-0.0185 15.61858,0.14337 54.78516,-0.0488 16.4381,-0.0607 19.31456,-0.13014 22.2461,-0.25192 4.73871,-0.0886 8.11181,-0.29321 8.2539,-0.64844 0.62105,-0.99368 -0.12196,-2.96486 -0.30469,-4.43555 -0.26698,-2.14879 -0.6209,-4.29398 -1.15429,-6.39257 -1.90859,-7.50927 -4.80522,-16.3895 -7.29297,-22.07032 -0.6007,-1.47632 -1.32573,-2.7642 -2.01915,-4.13108 -1.10016,-2.04361 -2.05228,-4.16884 -3.2289,-6.1697 -0.34151,-0.58074 -0.75046,-1.11931 -1.10937,-1.68945 -0.37545,-0.59642 -0.71573,-1.21452 -1.0918,-1.81055 -1.00129,-1.58691 -2.06585,-3.13302 -3.09961,-4.69897 -3.79135,-5.79597 -10.05086,-12.0774 -15.67578,-17.54101 -1.54079,-1.4966 -3.19724,-2.87987 -4.92774,-4.15235 -7.29352,-5.36311 -14.91766,-10.32994 -22.89648,-14.60742 -4.72169,-2.53132 -9.5992,-4.69948 -14.69922,-6.5 -10.8,-3.8 -20.80078,-5.30078 -35.30078,-5.30078 z m -18.61133,10.51758 c 0.3096,0.0107 0.0676,0.28281 -0.88867,0.88281 -0.8,0.5 -4.30078,2.60117 -7.80078,4.70117 -17.1,10.2 -35.89883,27.49922 -44.79883,41.19922 -4.91792,7.67196 -11.57637,21.24483 -12.93555,26.25586 -0.21576,0.33813 -0.43818,0.75253 -0.66406,1.24414 -1,2.2 -1.8,2.5 -6,2.5 -1.97285,0 -3.71555,-0.23027 -4.4414,-0.60351 -0.58452,-3.15915 1.12836,-9.18346 5.14062,-17.69727 10.5,-22.1 25.10039,-36.19961 50.40039,-49.09961 8.9375,-4.55 20.6467,-9.42915 21.98828,-9.38281 z"
       id="path314" />
    <path
       id="path306"
       style="display:inline;fill:#862d00;fill-opacity:1"
       d="m 570.19328,425.27308 c -1.23627,0.22414 -3.04254,0.38492 -5.05469,1.13867 v -0.002 c -2.39206,0.8425 -5.00803,2.45013 -9.94531,5.76172 -4.22803,3.09053 -8.75617,5.63388 -12.43945,9.28125 -0.31451,0.24222 -0.69693,0.58009 -1.16016,1.01758 -0.12314,0.12314 -0.24528,0.24888 -0.36523,0.37305 -0.0241,0.0232 -0.0486,0.0473 -0.0723,0.0703 -0.69037,0.55429 -1.32242,1.24327 -1.64258,1.87695 -0.11881,0.1948 -0.22851,0.3139 -0.30664,0.51172 -0.0723,0.18296 -0.10255,0.29954 -0.0527,0.35742 0.26563,0.55033 4.66927,3.81355 4.93945,4.01368 2.6,1.9 4.89922,3.59961 5.19922,3.59961 1.4,0 20.10039,-13.69922 30.90039,-22.69922 0.0619,-0.0413 0.0732,-0.12965 0.0391,-0.25586 0.14804,-0.0957 -0.14542,-0.51943 -0.83984,-1.44532 -0.1715,-0.19294 -0.37847,-0.34927 -0.56055,-0.53125 -0.34722,-0.34703 -0.60735,-0.79285 -1.01367,-1.06835 -1.42772,-0.96805 -2.61877,-1.79693 -4.80664,-1.91993 -0.53804,-0.0735 -1.50985,-0.0153 -2.81836,-0.0801 z m 27.79883,0.99804 c -0.93469,0.0262 -1.83003,0.31781 -2.71875,0.58203 -1.36643,0.44587 -2.92257,1.09756 -4.48242,1.8711 -0.16934,-0.009 -0.82237,0.32071 -1.99805,1.04687 -0.0239,0.0143 -0.0485,0.0307 -0.0723,0.0449 -0.92968,0.51946 -1.80797,1.05285 -2.57617,1.56641 -1.01404,0.63309 -1.75839,1.12758 -2.28125,1.52148 -2.09351,1.3712 -4.28481,2.9336 -5.16992,3.76954 -0.6,0.6 -7.00117,5.59961 -14.20117,11.09961 l -2.8086,2.1289 0.10938,-0.13086 -0.3418,0.30469 -10.1582,7.69531 v 6.69922 c 0,4.20276 0.71747,7.33647 2.58984,8.35938 0.96015,0.52454 2.1251,-0.59335 3.08985,-1.10938 2.91705,-1.5603 4.7681,-3.32173 7.97265,-5.91016 1.68534,-1.3892 3.42266,-2.72247 4.99414,-4.24218 0.0513,-0.0326 0.10257,-0.0651 0.1543,-0.0977 2.6,-1.7 6.09844,-4.39844 7.89844,-5.89844 0.15689,-0.13844 0.35289,-0.30729 0.58594,-0.5039 0.59139,-0.49899 1.41599,-1.17645 2.4082,-1.97852 2.85335,-2.30656 7.09864,-5.65288 11.20703,-8.81836 1.52143,-1.19179 2.97902,-2.34419 4.30664,-3.4082 0.007,-0.006 0.0106,-0.0101 0.0176,-0.0156 l 2.88867,-1.85351 c 1.4086,-1.10235 2.66139,-1.99448 4.1875,-2.92188 1.48802,-1.19042 3.49564,-1.80545 3.75,-3.30273 0.25436,-1.49728 -0.11331,-2.28494 -2.75,-4.09766 -0.84603,-0.53582 -1.70723,-0.99311 -2.85742,-1.67773 -0.63036,-0.3752 -1.83243,-0.72266 -3.74414,-0.72266 z m 29.78711,1.66797 c -1.07269,0.004 -2.1409,0.11778 -3.18555,0.33203 -5.86706,1.2033 -13.00078,7.4 -43.80078,31.5 -9.9,7.7 -20.40078,15.50039 -23.30078,17.40039 -2.62338,1.69748 -4.08153,2.73281 -4.70313,3.51563 -1.04577,0.38539 -2.13395,0.88447 -3.19531,1.48437 -1.02078,0.59545 -1.95133,1.19032 -2.68359,1.70899 -0.48255,0.15197 -0.95936,0.31628 -1.41797,0.49023 -4.11921,1.35653 -8.45162,2.18821 -12.69922,2.80078 -7.06474,0.64319 -14.12395,0.10127 -21.19922,-0.30078 -6,-0.4 -12.7,-1 -15,-1.5 -2.4,-0.4 -4.30078,-0.49922 -4.30078,-0.19922 0,0.4 2.99961,2.10039 6.59961,3.90039 3.7,1.8 13.67656,5.95196 13.47656,6.25196 -0.3,0.2 -13.27656,-3.35313 -19.97656,-4.95313 -8.3,-2.1 -15.09922,-3.09922 -21.69922,-3.19922 -1.16123,-0.0223 -2.28849,-0.0596 -3.33984,-0.10742 0.0178,-0.17507 0.19781,-0.45172 0.53906,-0.79297 2.7,-2.7 20.20117,-5.19922 39.70117,-5.69922 5.70003,-0.15833 10.86999,-0.40038 14.48242,-0.65234 3.78158,-0.0791 6.7794,-0.18862 9.2168,-0.38672 l 3.30078,-0.16211 c 1.13925,-0.27243 2.14875,-0.56826 3.06836,-0.91406 1.92253,-0.61828 3.30971,-1.50543 4.66406,-2.79492 0.7587,-0.67629 1.49922,-1.4633 2.26758,-2.39063 0.5009,-0.58676 0.91206,-1.14902 1.23828,-1.68164 1.61516,-2.24644 1.7086,-3.6128 1.46094,-8.31836 -0.10282,-2.05632 -0.53379,-3.7492 -1.18555,-4.97656 0.0388,-0.51722 -0.59375,-1.17751 -2.11523,-2.52344 -2.56703,-2.22013 -7.20376,-3.14063 -9.80274,-2.46094 -0.75071,0.0587 -1.67379,0.14751 -2.79687,0.26172 -3.19706,0.36538 -7.64532,0.64546 -10.29688,0.76758 -0.57839,-0.0514 -1.30221,-0.0684 -2.20312,-0.0684 -7.2,0 -20.2,-2.89961 -32,-7.09961 -17.01333,-6.10445 -28.83691,-9.02563 -43.71094,-8.97265 -8.4019,0.0299 -17.11096,1.857 -24.65429,5.24414 -0.46549,-0.0714 -1.20046,0.24152 -2.34766,0.92773 -1.0927,0.4584 -4.62468,2.43857 -8.38672,4.80078 -0.536,0.32985 -1.10888,0.65467 -1.62695,1.03516 -6.12387,4.49764 -10.70805,7.76419 -17.42969,14.68945 -0.0985,0.0553 -0.17698,0.13983 -0.24219,0.24805 -1.51427,1.51845 -2.94921,3.01502 -4.23437,4.43359 -2.7404,2.61096 -4.98852,5.79975 -7.13868,8.9336 -1.33066,1.97765 -2.62369,3.96422 -3.92773,5.95898 l -0.56445,0.87109 -2.73633,4.0293 c -0.0951,0.14008 -0.0567,0.15206 0,0.20117 l 3.11133,2.69532 c 3.43603,3.16858 6.42646,4.44803 9.1914,7.18164 4.99417,4.93759 9.1667,10.67611 13.16016,16.45312 1.58407,2.29154 2.71038,4.87563 4.26172,7.18945 1.19872,1.78789 2.39448,3.60678 3.88867,5.15625 1.69613,1.75889 3.05335,3.98172 5.6875,4.62305 0.9,-0.3 5.39961,-1.6 10.09961,-3 18,-5.3 29.9,-5.79961 50,-2.09961 11.7,2.1 39.69961,2.2 50.59961,0 14.60466,-2.80409 25.18145,-6.69996 37.61328,-15.21679 0.98783,-0.47855 2.24009,-1.33778 3.78711,-2.58399 0.51201,-0.40001 0.9544,-0.76576 1.32812,-1.09961 7.53018,-5.67267 15.94292,-13.04562 26.3711,-22.79883 7.3,-6.7 21.50156,-20 31.60156,-29.5 10.2,-9.5 18.7,-18.20078 19,-19.30078 0.0561,-0.24304 0.0798,-0.50045 0.0723,-0.76953 0.009,-0.01 0.0194,-0.0187 0.0273,-0.0293 0.37281,-0.63377 -0.61164,-1.98265 -1.12109,-2.87695 -0.2353,-0.41304 -0.55395,-0.77611 -0.87891,-1.12305 -0.63576,-0.67875 -1.31203,-1.33692 -2.08008,-1.86132 -1.4259,-0.97357 -3.18254,-1.97825 -4.62109,-2.33789 -1.06296,-0.22983 -2.14021,-0.33787 -3.21289,-0.33399 z" />
    <path
       id="path315"
       style="display:inline;fill:#862d00;fill-opacity:1"
       d="m 382.5,400.99901 c -3.43231,0.003 -10.31361,-0.17737 -12.5374,0.0152 -0.92321,1.22835 -1.65439,1.98518 -2.49558,4.37987 -0.84118,2.39469 -0.15828,8.40567 1.48636,10.26746 3.30191,2.41422 9.63868,1.45173 13.88367,1.47011 5.73727,-0.0316 27.32602,0.0862 267.20592,0.0862 0,0 3.43106,0.19348 4.59899,-0.83805 2.15023,-1.8991 2.13248,-10.0853 0.63787,-13.02661 -0.68837,-1.35468 -1.35514,-2.20054 -3.80131,-2.5162 -47.88367,0.18434 -0.93785,-0.0411 -268.97852,0.16198 z" />
  </g>
</svg>
